<?xml version="1.0" encoding="iso-8859-1"?>
<!-- Uploaded to: SVG Repo, www.svgrepo.com, Transformed by: SVG Repo Mixer Tools -->
<svg fill="#000000" height="800px" width="800px" version="1.1" id="Layer_1" xmlns="http://www.w3.org/2000/svg" xmlns:xlink="http://www.w3.org/1999/xlink" 
	 viewBox="0 0 512 512" xml:space="preserve">
<g>
	<g>
		<g>
			<path d="M464.679,111.281v-38.83c0-9.22-7.475-16.696-16.696-16.696h-52.262c-9.22,0-16.696,7.475-16.696,16.696v38.75h-45.705
				V86.246c0-9.22-7.475-16.696-16.696-16.696H195.381c-9.22,0-16.696,7.475-16.696,16.696v24.954h-45.705v-38.75
				c0-9.22-7.475-16.696-16.696-16.696H64.023c-9.22,0-16.696,7.475-16.696,16.696v38.83C20.988,112.719,0,134.596,0,161.288v244.87
				c0,27.618,22.469,50.087,50.087,50.087h411.826c27.618,0,50.087-22.469,50.087-50.087v-244.87
				C512,134.598,491.016,112.722,464.679,111.281z M412.417,89.147h18.871v22.054h-18.871V89.147z M212.077,102.942h87.854v8.259
				h-87.854V102.942z M80.719,89.147h18.872v22.054H80.719V89.147z M478.609,406.157c0,9.206-7.49,16.696-16.696,16.696H50.087
				c-9.206,0-16.696-7.49-16.696-16.696v-244.87c0-9.206,7.49-16.696,16.696-16.696c20.557,0,391.04,0,411.826,0
				c9.206,0,16.696,7.49,16.696,16.696V406.157z"/>
			<path d="M154.894,245.555c-21.045,0-38.168,17.122-38.168,38.167c0,21.045,17.123,38.168,38.168,38.168
				s38.167-17.123,38.167-38.168S175.94,245.555,154.894,245.555z M154.894,288.5c-2.633,0-4.777-2.144-4.777-4.777
				c0-2.633,2.144-4.776,4.777-4.776s4.776,2.143,4.776,4.776C159.671,286.356,157.528,288.5,154.894,288.5z"/>
			<path d="M357.113,195.193c-20.107,0-38.66,6.749-53.54,18.086h-95.14c-14.879-11.336-33.432-18.086-53.54-18.086
				c-48.816,0-88.53,39.714-88.53,88.529c0,48.816,39.714,88.53,88.53,88.53c20.107,0,38.659-6.749,53.54-18.086h95.141
				c14.879,11.336,33.432,18.086,53.54,18.086c48.815,0,88.529-39.714,88.529-88.53
				C445.643,234.908,405.928,195.193,357.113,195.193z M154.894,338.862c-30.404,0-55.139-24.734-55.139-55.139
				c0-30.403,24.735-55.138,55.139-55.138c30.403,0,55.138,24.735,55.138,55.138C210.032,314.126,185.297,338.862,154.894,338.862z
				 M276.74,320.776h-41.474c10.602-22.905,11.152-50.012,0-74.105h41.474C266.138,269.577,265.59,296.686,276.74,320.776z
				 M357.113,338.862c-30.403,0-55.138-24.735-55.138-55.139c0-30.403,24.735-55.138,55.138-55.138
				c30.403,0,55.138,24.735,55.138,55.138C412.251,314.128,387.516,338.862,357.113,338.862z"/>
			<path d="M357.113,245.555c-21.045,0-38.169,17.122-38.169,38.167c0,21.045,17.123,38.168,38.169,38.168
				c21.045,0,38.168-17.123,38.168-38.168S378.159,245.555,357.113,245.555z M357.113,288.5c-2.633,0-4.777-2.144-4.777-4.777
				c0-2.633,2.144-4.776,4.777-4.776c2.633,0,4.777,2.143,4.777,4.776C361.891,286.356,359.747,288.5,357.113,288.5z"/>
		</g>
	</g>
</g>
</svg>