<?xml version="1.0" encoding="iso-8859-1"?>
<!-- Generator: Adobe Illustrator 16.0.0, SVG Export Plug-In . SVG Version: 6.00 Build 0)  -->
<!DOCTYPE svg PUBLIC "-//W3C//DTD SVG 1.1//EN" "http://www.w3.org/Graphics/SVG/1.1/DTD/svg11.dtd">
<svg version="1.1" fill="#D8A66D" id="Capa_1" xmlns="http://www.w3.org/2000/svg" xmlns:xlink="http://www.w3.org/1999/xlink" x="0px" y="0px"
	 width="24px" height="24px" viewBox="0 0 594.394 594.395" style="enable-background:new 0 0 594.394 594.395;"
	 xml:space="preserve">
<g>
	<path d="M178.058,371.443l10.263-10.213c1.436-1.581,3.557-4.852,0.168-8.432l-1.031-1.026c-4.525-4.525-9.259,0.718-9.259,0.718
		l-30.206,30.074c-5.424,5.406-1.858,8.613-1.858,8.613l1.317,1.326c0,0,4.302,5.179,9.345,0.154l9.922-9.895l39.41,39.597
		c1.785,1.581,5.306,3.779,8.718,0.363l3.053-3.025c1.467-1.917,2.789-5.461-1.913-10.167L178.058,371.443L178.058,371.443z"/>
	<path d="M209.85,335.026c-6.864-6.896-11.871-2.244-11.871-2.244l-1.758,1.735c-4.688,4.688,1.036,10.612,1.036,10.612
		l41.654,41.813c1.227,1.163,6.242,5.597,10.104,1.763l2.453-2.472c1.508-1.726,3.798-5.605-0.736-10.157L209.85,335.026
		L209.85,335.026z"/>
	<path d="M297.869,323.578c-3.07-3.08-6.332,2.562-6.332,2.562s-0.164-0.055-0.191-0.055c-2.48,4.271-4.988,8.051-7.596,10.631
		c-8.986,8.949-19.417,7.423-31.31-4.524c-5.715-5.743-9.013-11.376-9.876-16.918c-0.854-5.561,0.872-10.467,5.151-14.715
		c1.936-1.963,4.289-3.58,7.023-4.884c0.327-0.164,0.682-0.272,1.018-0.427l-0.027-0.036c0,0,7.904-2.199,5.07-8.786l-0.645-1.513
		c-1.663-3.843-5.125-3.834-7.005-3.521c-5.651,2.535-10.776,5.643-14.865,9.695c-5.106,5.088-8.45,10.644-10.021,16.664
		c-1.563,6.023-1.281,12.139,0.863,18.335c2.135,6.233,5.997,12.111,11.539,17.69c8.804,8.85,17.645,13.584,26.476,14.165
		c8.85,0.636,17.154-2.935,24.95-10.694c4.425-4.425,7.659-9.149,10.167-14.128c0.536-1.781,0.728-4.652-2.48-7.623L297.869,323.578
		L297.869,323.578z"/>
	<path d="M354.042,276.064l-42.062-9.626l-4.062-34.89c0-0.023,0-0.005,0-0.023c-0.854-7.469-6.006-2.281-6.006-2.281l-4.262,4.243
		c-3.207,3.212-2.717,7.446-2.717,7.446l3.162,28.403l1.809,10.758l-18.263-18.345c-5.133-5.138-9.031-3.048-10.676-1.681
		l-2.607,2.625c-4.262,4.234,1.626,10.104,1.626,10.104l41.922,42.077c1.681,1.6,6.138,5.07,10.081,1.108l2.835-2.762
		c1.436-2.054,2.489-5.615-2.145-10.258l-12.889-12.934l1.372-8.223l31.196,7.346c0,0,5.288,1.267,8.687-2.081l5.434-5.406
		C359.858,278.276,356.296,276.677,354.042,276.064L354.042,276.064z"/>
	<path d="M391.549,233.433c-2.907-2.885-7.342,1.908-7.342,1.908l-10.794,10.744c-3.034,3.035-5.888,1.845-7.614,0.486l-5.796-5.815
		c-0.964-0.986-3.943-4.884,1.362-10.181l8.468-8.418c1.236-1.495,2.89-4.588-0.781-8.6l-1.326-1.317
		c-3.362-3.362-7.741,1.154-7.741,1.154l-8.777,8.754c-4.961,4.965-9.34,0.399-9.34,0.399l-3.234-3.221c0,0-4.18-3.925,0.018-8.123
		l10.939-10.885c4.997-4.965,0.091-8.922,0.091-8.922l-1.617-1.599c-3.507-3.516-7.723,1.218-7.723,1.218l-20.099,19.993
		c-5.401,5.406-0.254,12.312-0.254,12.312l41.45,41.618c1.398,1.367,6.396,5.433,11.757,0.1l20.534-20.461
		c1.472-1.681,3.562-5.243-0.346-9.281L391.549,233.433L391.549,233.433z"/>
	<g>
		<path d="M391.604,169.786c-5.07-5.083-2.309-8.69-1.454-9.567l6.287-6.26c1.291-1.472,3.38-4.829-0.236-8.636l-0.999-1.036
			c-3.253-3.262-7.068-0.722-8.959,0.972l-31.237,31.133c-4.27,4.234-0.708,7.759-0.708,7.759l1.617,1.613
			c0,0,3.961,4.611,8.214,0.368l6.087-6.074c1.327-1.222,5.07-3.929,9.449,0.445l33.618,33.763c1.417,1.376,5.778,5.043,9.322,1.545
			l1.763-1.768c4.706-4.634,2.107-8.986,0.309-11.044L391.604,169.786L391.604,169.786z"/>
		<path d="M544.792,221.317l-25.768,25.645l-4.888,4.875L257.7,507.272l-12.52,12.466l-28.293,28.185
			c-13.475,13.411-23.214,2.962-23.214,2.962l-10.572-10.594c0,0-7.991-9.032-4.343-21.661c0-0.019,0-0.055,0.027-0.072
			c6.392-18.045,13.37-52.626-13.625-79.175l-6.415-6.433c-32.846-33.005-70.756-23.946-87.365-17.559c-0.027,0-0.009,0-0.009,0
			c-9.145,2.989-15.583-3.135-15.583-3.135l-14.601-14.665c0,0-7.301-8.504,2.521-18.28l30.938-30.819l6.755-6.724l248.544-247.55
			l18.554-18.49l25.131-25.036c3.054-2.939,14.684-12.793,24.859-2.566l4.925,4.952c2.525,2.88,7.269,10.271,5.487,23.278
			c-4.397,18.549-6.523,53.457,25.459,85.566l1.926,1.962c25.786,27.653,57.188,26.658,75.668,22.751l0.018,0.036
			c0,0,16.01-4.67,27.222,6.615l2.489,2.48C553.078,207.652,548.572,216.797,544.792,221.317L544.792,221.317z M584.697,190.925
			l-33-33.132c-13.302-13.343-33.745-2.458-33.745-2.458l-0.054-0.036c-21.315,8.895-46.811,4.679-64.129-12.693
			c-17.336-17.404-21.424-42.944-12.411-64.242c0.073-0.205,0.073-0.336,0.182-0.55c7.705-20.366-3.271-33.745-6.487-37.121
			L401.889,7.385c-14.483-14.542-30.202-1.313-34.054,2.371L9.847,366.337c-19.894,19.789-3.489,35.58-3.489,35.58l38.406,38.574
			c0,0,9.481,10.249,27.853,2.816c0.595-0.236,1.036-0.327,1.554-0.49c21.856-10.54,48.814-6.905,66.909,11.248
			c17.227,17.3,21.388,42.613,12.598,63.855h0.018c0,0-11.158,20.734,2.28,34.218l33.623,33.781
			c2.408,2.362,20.066,18.244,42.145-3.726l355.68-354.25C592.82,221.698,601.179,207.475,584.697,190.925L584.697,190.925z"/>
	</g>
</g>
<g>
</g>
<g>
</g>
<g>
</g>
<g>
</g>
<g>
</g>
<g>
</g>
<g>
</g>
<g>
</g>
<g>
</g>
<g>
</g>
<g>
</g>
<g>
</g>
<g>
</g>
<g>
</g>
<g>
</g>
</svg>
