<svg id="Слой_1" data-name="Слой 1" xmlns="http://www.w3.org/2000/svg" viewBox="0 0 60 60"><defs><style>.cls-1{fill:none;stroke:#76AB71;stroke-linecap:round;stroke-linejoin:round;stroke-width:1.15px;}</style></defs><title>tickets</title><line class="cls-1" x1="24.69" y1="22.03" x2="22.39" y2="24.36"/><line class="cls-1" x1="15.72" y1="31.12" x2="13.43" y2="33.44"/><line class="cls-1" x1="20.31" y1="26.47" x2="18.01" y2="28.79"/><line class="cls-1" x1="46.44" y1="33.29" x2="44.15" y2="30.97"/><line class="cls-1" x1="37.47" y1="24.21" x2="35.18" y2="21.88"/><line class="cls-1" x1="42.06" y1="28.86" x2="39.77" y2="26.53"/><path class="cls-1" d="M29.86,27.18,18,15.27l-2.92,3a3.92,3.92,0,0,1,0,5.49,3.8,3.8,0,0,1-5.42,0l-2.92,3,15,15.24,3.34-3.39"/><path class="cls-1" d="M50.49,23.27a3.8,3.8,0,0,1-5.42,0,3.92,3.92,0,0,1,0-5.49l-2.92-3L21.94,35.3,33.2,46.7,53.41,26.23Z"/><line class="cls-1" x1="39.46" y1="35.3" x2="32.99" y2="41.85"/><line class="cls-1" x1="34.06" y1="36.6" x2="30.91" y2="39.73"/></svg>
