<svg width="20" height="28" viewBox="0 0 20 28" fill="none" xmlns="http://www.w3.org/2000/svg">
<path d="M7.625 12.375C8.29167 13 9.08333 13.3125 10 13.3125C10.9167 13.3125 11.6875 13 12.3125 12.375C12.9792 11.7083 13.3125 10.9167 13.3125 10C13.3125 9.08333 12.9792 8.3125 12.3125 7.6875C11.6875 7.02083 10.9167 6.6875 10 6.6875C9.08333 6.6875 8.29167 7.02083 7.625 7.6875C7 8.3125 6.6875 9.08333 6.6875 10C6.6875 10.9167 7 11.7083 7.625 12.375ZM3.375 3.4375C5.20833 1.60417 7.41667 0.6875 10 0.6875C12.5833 0.6875 14.7708 1.60417 16.5625 3.4375C18.3958 5.22917 19.3125 7.41667 19.3125 10C19.3125 11.2917 18.9792 12.7708 18.3125 14.4375C17.6875 16.1042 16.9167 17.6667 16 19.125C15.0833 20.5833 14.1667 21.9583 13.25 23.25C12.375 24.5 11.625 25.5 11 26.25L10 27.3125C9.75 27.0208 9.41667 26.6458 9 26.1875C8.58333 25.6875 7.83333 24.7292 6.75 23.3125C5.66667 21.8542 4.70833 20.4583 3.875 19.125C3.08333 17.75 2.35417 16.2083 1.6875 14.5C1.02083 12.7917 0.6875 11.2917 0.6875 10C0.6875 7.41667 1.58333 5.22917 3.375 3.4375Z" fill="#0B4FFF"/>
</svg>
